<svg
  xmlns="http://www.w3.org/2000/svg"
  xmlns:xlink="http://www.w3.org/1999/xlink"
  version="1.1"
  xml:space="preserve"
  viewBox="0 0 100 100"
  width="100"
  height="100"
    >
  <!-- @todo DRY -->
  <g fill="#000">
    <path d="M39.4557918,45.023097 C36.0983627,42.6051214 34.3697469,41.0632359 32.6930554,38.5431281 C30.4660682,35.1959128 29.3157895,31.0400565 29.3157895,25.7118644 C29.3157895,22.975201 31.4253226,20.5962269 34.1488295,20.2568876 L35.3755303,20.104045 C43.4928922,19.0926505 56.5080144,19.0927635 64.6244697,20.104045 L65.8511705,20.2568876 C68.5658643,20.5951288 70.6842105,22.9763335 70.6842105,25.7118644 C70.6842105,31.0866016 69.5359503,35.2695442 67.3109655,38.631392 C65.6337615,41.1655684 63.9044978,42.7108593 60.5787867,45.1056151 C57.1305502,47.6645413 56.168847,48.8619983 56.168847,51.1047464 C56.168847,53.3474946 57.1305502,54.5449515 60.5442082,57.0785979 C63.9016373,59.4965735 65.6302531,61.0384591 67.3069446,63.5585668 C69.5339318,66.9057821 70.6842105,71.0616384 70.6842105,76.3898305 C70.6842105,79.1264939 68.5746774,81.5054681 65.8511705,81.8448074 L65.7250452,81.8605221 C56.9991677,82.9477355 43.0005569,82.9477012 34.2749548,81.8605221 L34.1488295,81.8448074 C31.4341357,81.5065661 29.3157895,79.1253614 29.3157895,76.3898305 C29.3157895,71.0616384 30.4660682,66.9057821 32.6930554,63.5585668 C34.3697469,61.0384591 36.0983627,59.4965735 39.4557918,57.0785979 C39.5079794,57.035051 39.5079794,57.035051 39.6518916,56.9230017 C42.9868308,54.3268016 43.831153,53.2220398 43.831153,50.9969485 C43.831153,48.7542004 42.8694498,47.5567434 39.4557918,45.023097 Z M41.2090052,59.5129855 C37.0179495,62.5313277 32.3157895,66.0886597 32.3157895,76.3898305 C32.3157895,77.6075283 33.3025366,78.7161655 34.5197508,78.8678261 L34.6458761,78.8835409 C43.1248502,79.9399909 56.8742754,79.9400999 65.3541239,78.8835409 L65.4802492,78.8678261 C66.7082409,78.7148227 67.6842105,77.6067291 67.6842105,76.3898305 C67.6842105,66.0886597 62.9820505,62.5313277 58.7909948,59.5129855 C56.0310313,57.4648247 53.168847,55.308866 53.168847,51.1047464 C53.168847,46.9006269 56.0310313,44.7446681 58.7909948,42.6965073 C62.9820505,39.6781651 67.6842105,36.1208332 67.6842105,25.7118644 C67.6842105,24.4941666 66.6974634,23.3855294 65.4802492,23.2338688 L64.2535485,23.0810263 C56.3844058,22.100559 43.618469,22.1002008 35.7464515,23.0810263 L34.5197508,23.2338688 C33.2917591,23.3868722 32.3157895,24.4949658 32.3157895,25.7118644 C32.3157895,36.0130353 37.0179495,39.5703672 41.2090052,42.5887094 C43.9689687,44.6368702 46.831153,46.7928289 46.831153,50.9969485 C46.831153,55.308866 43.9689687,57.3570268 41.2090052,59.5129855 Z M63.2190418,32.1449441 C63.8194139,32.2393479 64.1431432,32.7911477 63.9455887,33.3509733 C63.9455887,33.3509733 63.8195441,33.7582969 63.6485866,34.1163154 C62.1595854,37.2345746 60.411663,38.3450945 57.4636169,40.5221316 C52.7768609,44.088159 50.9536236,46.4159746 51.0999348,50.875193 C51.0789123,51.357899 51.0989799,50.8979335 51.0989799,50.8979335 C51.0995073,51.506588 50.611455,52 49.9994201,52 C49.3916226,52 48.907798,51.5110443 48.8998602,50.8979335 C48.8998602,50.8979335 48.9199279,51.357899 48.8989053,50.875193 C49.0452166,46.4159746 47.2219793,44.088159 42.5352233,40.5221316 C39.5871772,38.3450945 37.8392547,37.2345746 36.3502536,34.1163154 C36.179296,33.7582969 36.0532515,33.3509733 36.0532515,33.3509733 C35.8541402,32.7793055 36.1851973,32.2384404 36.7797983,32.1449441 L39.6399668,31.6952052 C45.3613349,30.7955654 54.6443928,30.7966484 60.3588733,31.6952052 L63.2190418,32.1449441 Z" />
  </g>
</svg>
