<svg
  xmlns="http://www.w3.org/2000/svg"
  xmlns:xlink="http://www.w3.org/1999/xlink"
  version="1.1"
  xml:space="preserve"
  viewBox="0 0 100 100"
  width="100"
  height="100"
    >
  <!-- @todo DRY -->
  <g width="100" height="100" fill="#fff">
    <path d="M49.78 14.002a4.674 4.55 0 0 0-3.843 2.28L8.626 79.19a4.674 4.55 0 0 0 4.062 6.812h74.626a4.674 4.55 0 0 0 4.062-6.812L54.03 16.283a4.674 4.55 0 0 0-4.25-2.28zm.22 20c2.21 0 4 1.79 4 4l-1 18c0 1.657-1.343 3-3 3s-3-1.343-3-3l-1-18c0-2.21 1.79-4 4-4zm0 30c2.76 0 5 2.24 5 5s-2.24 5-5 5-5-2.24-5-5 2.24-5 5-5z" />
  </g>
</svg>
