<?xml version="1.0" encoding="UTF-8" ?><!DOCTYPE svg PUBLIC "-//W3C//DTD SVG 1.1//EN" "http://www.w3.org/Graphics/SVG/1.1/DTD/svg11.dtd"><svg width="640pt" height="640pt" viewBox="0 0 640 640" version="1.1" xmlns="http://www.w3.org/2000/svg"><path fill="#ff9b07" d=" M 276.49 10.79 C 276.82 12.84 277.05 14.91 277.02 16.99 C 276.91 103.52 277.13 190.04 276.91 276.57 C 188.28 276.51 99.65 276.42 11.02 276.61 C 36.03 272.55 61.12 268.47 85.54 261.57 C 122.69 251.36 159.33 236.08 188.97 210.94 C 214.21 189.78 232.67 161.47 244.87 131.05 C 254.97 106.58 261.56 80.86 267.50 55.12 C 270.57 40.36 274.18 25.69 276.49 10.79 Z" /><path fill="#ff6701" d=" M 363.32 10.58 C 368.30 33.58 372.66 56.75 378.70 79.52 C 387.25 112.59 398.69 145.52 418.09 173.93 C 430.57 192.36 446.48 208.46 464.67 221.28 C 496.84 244.12 534.74 257.28 572.88 266.16 C 591.45 270.61 610.34 273.51 629.18 276.55 C 540.56 276.43 451.94 276.56 363.31 276.48 C 363.09 229.99 363.28 183.50 363.22 137.01 C 363.29 94.86 363.08 52.72 363.32 10.58 Z" /><path fill="#ff9b07" d=" M 151.17 104.26 C 163.94 102.25 177.55 105.37 187.91 113.17 C 196.88 119.62 203.56 129.20 206.40 139.88 C 210.35 154.54 207.40 171.09 197.92 183.06 C 190.47 192.78 179.29 199.63 167.16 201.57 C 153.12 204.07 138.03 200.05 127.19 190.76 C 117.94 183.12 111.71 171.96 110.07 160.08 C 108.24 148.18 111.12 135.68 117.73 125.65 C 125.34 114.36 137.64 106.24 151.17 104.26 Z" /><path fill="#ff6701" d=" M 471.48 104.73 C 482.35 102.38 493.96 104.04 503.86 109.04 C 516.69 115.60 526.52 127.97 529.51 142.12 C 532.79 156.04 529.47 171.34 520.77 182.68 C 514.64 190.85 505.88 197.07 496.09 200.01 C 480.99 204.87 463.54 201.76 451.15 191.82 C 441.71 184.53 435.12 173.72 433.02 161.98 C 430.96 150.92 432.78 139.14 438.25 129.29 C 444.97 116.73 457.52 107.52 471.48 104.73 Z" /><path fill="#ff6701" d=" M 10.77 363.37 C 99.41 363.69 188.06 363.37 276.70 363.53 C 276.86 452.14 276.79 540.75 276.73 629.36 C 273.28 614.81 270.79 600.03 267.33 585.47 C 258.33 545.78 247.26 505.63 225.18 470.99 C 212.03 450.30 194.76 432.25 174.65 418.24 C 156.23 405.21 135.72 395.37 114.55 387.66 C 84.32 376.74 52.76 369.97 21.04 365.11 C 17.60 364.63 14.16 364.12 10.77 363.37 Z" /><path fill="#ff9b07" d=" M 363.17 363.37 C 414.44 363.64 465.71 363.41 516.98 363.49 C 554.32 363.42 591.67 363.61 629.01 363.39 C 611.30 366.41 593.49 368.95 575.99 373.08 C 537.91 381.65 500.11 394.46 467.56 416.47 C 450.68 427.97 435.55 442.09 423.29 458.44 C 400.08 489.05 387.23 525.99 377.81 562.84 C 372.30 584.81 367.50 606.97 363.36 629.24 C 362.81 625.18 363.02 621.08 363.00 617.00 C 363.00 558.32 363.00 499.64 363.00 440.96 C 363.12 415.10 362.77 389.23 363.17 363.37 Z" /><path fill="#ff6701" d=" M 151.18 438.29 C 164.12 436.32 177.90 439.66 188.27 447.73 C 198.01 455.03 204.84 466.03 206.98 478.02 C 209.05 489.09 207.21 500.88 201.74 510.73 C 195.26 522.81 183.37 531.85 170.01 534.93 C 155.67 538.50 139.76 535.07 128.20 525.86 C 119.06 518.75 112.49 508.35 110.29 496.95 C 107.28 483.04 110.86 467.86 119.70 456.71 C 127.30 446.81 138.85 440.12 151.18 438.29 Z" /><path fill="#ff9b07" d=" M 471.47 438.68 C 482.81 436.36 494.93 438.24 505.04 443.87 C 516.84 450.40 525.85 461.92 528.98 475.09 C 531.67 485.48 530.63 496.70 526.48 506.57 C 521.02 519.21 510.04 529.45 496.93 533.74 C 484.37 538.06 470.04 536.93 458.29 530.74 C 447.09 524.83 438.12 514.56 434.30 502.43 C 430.29 490.00 431.28 475.93 437.36 464.32 C 444.08 451.23 456.97 441.42 471.47 438.68 Z" /></svg>
