<svg
  xmlns="http://www.w3.org/2000/svg"
  xmlns:xlink="http://www.w3.org/1999/xlink"
  version="1.1"
  xml:space="preserve"
  viewBox="0 0 100 100"
  width="100"
  height="100"
    >
  <!-- @todo DRY -->
  <g id="microphone" width="90" height="90" fill="#ff9b07">
    <path d="M50,5C25.147,5,5,25.147,5,50c0,24.853,20.147,45,45,45s45-20.147,45-45C95,25.147,74.853,5,50,5z M41.562,30.312  c0-4.66,3.778-8.438,8.438-8.438s8.438,3.778,8.438,8.438V50c0,4.66-3.778,8.438-8.438,8.438S41.562,54.66,41.562,50V30.312z   M52.812,66.599V72.5h5.625c1.553,0,2.812,1.259,2.812,2.812c0,1.553-1.259,2.812-2.812,2.812H41.562  c-1.553,0-2.812-1.259-2.812-2.812c0-1.553,1.259-2.812,2.812-2.812h5.625v-5.901C39.43,65.171,33.125,58.035,33.125,50  c0-1.553,1.259-2.812,2.812-2.812c1.553,0,2.812,1.259,2.812,2.812c0,5.31,4.811,11.25,11.25,11.25S61.25,55.31,61.25,50  c0-1.553,1.259-2.812,2.812-2.812c1.553,0,2.812,1.259,2.812,2.812C66.875,58.035,60.57,65.171,52.812,66.599z" />
  </g>
</svg>
