<svg
  xmlns="http://www.w3.org/2000/svg"
  xmlns:xlink="http://www.w3.org/1999/xlink"
  version="1.1"
  xml:space="preserve"
  viewBox="0 0 100 100"
  width="100"
  height="100"
    >
  <!-- @todo DRY -->
  <g width="100" height="100" fill="#000">
    <path d="M3.97842,1.87536A1.60929,1.60929,0,1,0,4.10459,2.5,1.59907,1.59907,0,0,0,3.97842,1.87536Zm-.73332.88945-.61735.61735a.18067.18067,0,0,1-.2555,0L1.7549,2.76482a.18066.18066,0,1,1,.2555-.2555l.30894.30894V1.74558a.18066.18066,0,0,1,.36133,0V2.81826l.30894-.30894a.18066.18066,0,1,1,.2555.2555Z" transform="scale(20)" />
  </g>
</svg>
